<svg width="34" height="34" viewBox="0 0 34 34" fill="none" xmlns="http://www.w3.org/2000/svg">
<path fill-rule="evenodd" clip-rule="evenodd" d="M29.3486 18.1012C29.3486 17.2502 29.2722 16.4321 29.1304 15.6466H17.8286V20.2884H24.2868C24.0086 21.7884 23.1632 23.0593 21.8922 23.9102V26.9211H25.7704C28.0395 24.8321 29.3486 21.7557 29.3486 18.1012Z" fill="#4285F4"/>
<path fill-rule="evenodd" clip-rule="evenodd" d="M17.8286 29.8289C21.0686 29.8289 23.785 28.7544 25.7704 26.9216L21.8922 23.9107C20.8177 24.6307 19.4432 25.0562 17.8286 25.0562C14.7032 25.0562 12.0577 22.9453 11.1141 20.1089H7.10498V23.218C9.07953 27.1398 13.1377 29.8289 17.8286 29.8289Z" fill="#34A853"/>
<path fill-rule="evenodd" clip-rule="evenodd" d="M11.1141 20.1085C10.8741 19.3885 10.7377 18.6195 10.7377 17.8285C10.7377 17.0376 10.8741 16.2685 11.1141 15.5485V12.4395H7.10498C6.29225 14.0595 5.82861 15.8922 5.82861 17.8285C5.82861 19.7649 6.29225 21.5976 7.10498 23.2176L11.1141 20.1085Z" fill="#FBBC05"/>
<path fill-rule="evenodd" clip-rule="evenodd" d="M17.8286 10.6013C19.5904 10.6013 21.1722 11.2068 22.4159 12.3958L25.8577 8.95403C23.7795 7.01767 21.0632 5.82858 17.8286 5.82858C13.1377 5.82858 9.07953 8.51767 7.10498 12.4395L11.1141 15.5486C12.0577 12.7122 14.7032 10.6013 17.8286 10.6013Z" fill="#EA4335"/>
</svg>
