<svg width="62" height="90" viewBox="0 0 62 90" fill="none" xmlns="http://www.w3.org/2000/svg">
<path d="M13.1911 62.1308C13.1911 62.9553 13.1312 63.6269 13.0049 64.1323C12.8786 64.6443 12.6857 65.0698 12.4197 65.4156C12.1538 65.7614 11.8146 66.0274 11.4024 66.2002C10.9901 66.3798 10.4848 66.4662 9.8996 66.4662C9.63363 66.4662 9.40754 66.4463 9.22136 66.4197C9.03517 66.3864 8.89554 66.3465 8.79579 66.3066C8.69605 66.2667 8.62956 66.2202 8.58966 66.1603C8.54976 66.1072 8.52317 66.0473 8.50987 65.9742C8.48992 65.901 8.48327 65.8279 8.47662 65.7547C8.46997 65.6816 8.46997 65.5885 8.46997 65.4821C8.46997 65.3358 8.47662 65.2028 8.48992 65.0964C8.50322 64.99 8.52317 64.9036 8.54976 64.8371C8.57636 64.7706 8.60961 64.7241 8.64951 64.6975C8.6894 64.6709 8.73595 64.6509 8.78914 64.6509C8.83569 64.6509 8.93543 64.6642 9.08172 64.6842C9.22801 64.7041 9.39424 64.7174 9.58708 64.7174C9.85971 64.7174 10.0924 64.6775 10.2853 64.5911C10.4781 64.5113 10.6377 64.3716 10.764 64.1855C10.8904 63.9993 10.9768 63.7599 11.0367 63.4607C11.0965 63.1614 11.1231 62.7093 11.1231 62.1108V50.4676C11.1231 50.4078 11.1364 50.3546 11.1696 50.3081C11.2029 50.2615 11.2561 50.215 11.3359 50.1817C11.4157 50.1485 11.5221 50.1219 11.6551 50.1086C11.788 50.0953 11.9543 50.082 12.1538 50.082C12.3533 50.082 12.5195 50.0886 12.6525 50.1086C12.7855 50.1285 12.8919 50.1485 12.9717 50.1817C13.0514 50.215 13.1046 50.2549 13.1379 50.3081C13.1711 50.3546 13.1844 50.4144 13.1844 50.4676V62.1308H13.1911Z" fill="#38D0B7"/>
<path d="M25.3996 61.6521C25.3996 61.7518 25.3663 61.825 25.2998 61.8782C25.2333 61.9247 25.1402 61.9646 25.0272 61.9912C24.9075 62.0178 24.7413 62.0311 24.5152 62.0311C24.3024 62.0311 24.1295 62.0178 24.0032 61.9912C23.8768 61.9646 23.7838 61.9314 23.7239 61.8782C23.6641 61.825 23.6375 61.7518 23.6375 61.6521V60.535C23.1521 61.0536 22.6068 61.4593 22.0084 61.7518C21.4099 62.0444 20.7716 62.184 20.1 62.184C19.5148 62.184 18.9829 62.1109 18.5041 61.958C18.0253 61.805 17.6264 61.5856 17.2872 61.293C16.9548 61.0004 16.6954 60.648 16.5093 60.2291C16.3231 59.8102 16.23 59.3248 16.23 58.7928C16.23 58.1611 16.3563 57.6159 16.6156 57.1571C16.875 56.6916 17.2407 56.3126 17.7195 56.0001C18.1982 55.6942 18.7834 55.4614 19.4816 55.3152C20.1731 55.1622 20.9577 55.0824 21.8288 55.0824H23.3648V54.2113C23.3648 53.7791 23.3183 53.4001 23.2319 53.0676C23.1388 52.7352 22.9925 52.4625 22.793 52.2431C22.5869 52.0237 22.3275 51.8574 22.0084 51.7444C21.6892 51.6314 21.2902 51.5782 20.8181 51.5782C20.3127 51.5782 19.8606 51.638 19.4616 51.7577C19.0626 51.8774 18.7102 52.0104 18.4044 52.1567C18.1051 52.303 17.8524 52.4359 17.6463 52.5556C17.4402 52.6753 17.2939 52.7352 17.1942 52.7352C17.1277 52.7352 17.0678 52.7152 17.0213 52.682C16.9681 52.6487 16.9282 52.6022 16.8883 52.5357C16.8484 52.4692 16.8218 52.3827 16.8085 52.283C16.7885 52.1766 16.7819 52.0636 16.7819 51.9439C16.7819 51.7378 16.7952 51.5715 16.8218 51.4518C16.8484 51.3321 16.9215 51.2191 17.0346 51.1127C17.1476 51.0063 17.3404 50.88 17.6131 50.7337C17.8857 50.5874 18.1982 50.4544 18.5573 50.3347C18.9097 50.215 19.302 50.1153 19.7209 50.0355C20.1399 49.9557 20.5654 49.9158 20.9976 49.9158C21.8022 49.9158 22.4805 50.0089 23.0457 50.1884C23.6109 50.368 24.063 50.6339 24.4088 50.9864C24.7546 51.3388 25.0073 51.771 25.1668 52.2963C25.3264 52.815 25.3996 53.4267 25.3996 54.1183V61.6521ZM23.3648 56.552H21.6094C21.0442 56.552 20.5588 56.5985 20.1465 56.6916C19.7342 56.7847 19.3885 56.9243 19.1158 57.1105C18.8432 57.2967 18.6437 57.5228 18.5174 57.7821C18.3911 58.0414 18.3246 58.3407 18.3246 58.6798C18.3246 59.2583 18.5107 59.7171 18.8765 60.0629C19.2422 60.4086 19.7608 60.5749 20.4191 60.5749C20.9577 60.5749 21.4564 60.4352 21.9153 60.1626C22.3741 59.89 22.8528 59.4711 23.3582 58.9125V56.552H23.3648Z" fill="#38D0B7"/>
<path d="M38.7183 61.6387C38.7183 61.7052 38.705 61.7584 38.6784 61.805C38.6518 61.8515 38.5986 61.8914 38.5255 61.9246C38.4523 61.9579 38.3526 61.9845 38.2329 61.9978C38.1132 62.0177 37.9669 62.0244 37.794 62.0244C37.6012 62.0244 37.4483 62.0177 37.3286 61.9978C37.2089 61.9778 37.1158 61.9579 37.0426 61.9246C36.9695 61.8914 36.923 61.8515 36.903 61.805C36.8764 61.7584 36.8631 61.7052 36.8631 61.6387V60.1625C36.2248 60.8674 35.5997 61.3794 34.9747 61.6986C34.3563 62.0177 33.7246 62.184 33.0862 62.184C32.3415 62.184 31.7164 62.0576 31.2044 61.8116C30.6991 61.5656 30.2868 61.2265 29.9676 60.8009C29.6551 60.3753 29.429 59.8766 29.2894 59.3114C29.1497 58.7462 29.0833 58.0547 29.0833 57.2434V50.4676C29.0833 50.4011 29.0966 50.3479 29.1298 50.3014C29.1564 50.2549 29.2162 50.215 29.296 50.1751C29.3758 50.1352 29.4889 50.1152 29.6219 50.1019C29.7548 50.0886 29.9211 50.082 30.1206 50.082C30.32 50.082 30.4863 50.0886 30.6193 50.1019C30.7523 50.1152 30.8587 50.1418 30.9384 50.1751C31.0182 50.215 31.0714 50.2549 31.1047 50.3014C31.1379 50.3479 31.1512 50.4011 31.1512 50.4676V56.9708C31.1512 57.6224 31.1978 58.1478 31.2975 58.5401C31.3906 58.9324 31.5369 59.2715 31.7297 59.5441C31.9226 59.8234 32.1686 60.0362 32.4678 60.1891C32.767 60.3421 33.1128 60.4152 33.5118 60.4152C34.0238 60.4152 34.5358 60.2357 35.0412 59.87C35.5532 59.5042 36.0918 58.9723 36.6636 58.2674V50.4676C36.6636 50.4011 36.6769 50.3479 36.7102 50.3014C36.7368 50.2549 36.7966 50.215 36.8764 50.1751C36.9562 50.1352 37.0626 50.1152 37.1956 50.1019C37.3219 50.0886 37.4882 50.082 37.7009 50.082C37.9004 50.082 38.0667 50.0886 38.1997 50.1019C38.3326 50.1152 38.4324 50.1418 38.5122 50.1751C38.5853 50.215 38.6452 50.2549 38.6784 50.3014C38.7183 50.3479 38.7316 50.4011 38.7316 50.4676V61.6387H38.7183Z" fill="#38D0B7"/>
<path d="M52.1237 61.6388C52.1237 61.7053 52.1038 61.7585 52.0705 61.8051C52.0373 61.8516 51.9841 61.8915 51.9109 61.9247C51.8378 61.958 51.7314 61.9846 51.5984 61.9979C51.4654 62.0178 51.2992 62.0245 51.0997 62.0245C50.8936 62.0245 50.7207 62.0178 50.5943 61.9979C50.4613 61.9779 50.3616 61.958 50.2818 61.9247C50.2087 61.8915 50.1555 61.8516 50.1222 61.8051C50.089 61.7585 50.069 61.7053 50.069 61.6388V55.1024C50.069 54.4641 50.0225 53.952 49.9227 53.5664C49.823 53.1807 49.6767 52.8416 49.4905 52.5623C49.2977 52.283 49.0517 52.0636 48.7524 51.9173C48.4532 51.771 48.1008 51.6912 47.7018 51.6912C47.1898 51.6912 46.6778 51.8708 46.1658 52.2365C45.6538 52.6022 45.1152 53.1342 44.55 53.839V61.6388C44.55 61.7053 44.53 61.7585 44.4968 61.8051C44.4635 61.8516 44.4103 61.8915 44.3372 61.9247C44.2641 61.958 44.1577 61.9846 44.0247 61.9979C43.8917 62.0178 43.7255 62.0245 43.5193 62.0245C43.3198 62.0245 43.1536 62.0178 43.0206 61.9979C42.8876 61.9779 42.7812 61.958 42.7014 61.9247C42.6216 61.8915 42.5684 61.8516 42.5419 61.8051C42.5153 61.7585 42.502 61.7053 42.502 61.6388V50.4677C42.502 50.4012 42.5153 50.348 42.5419 50.3015C42.5684 50.255 42.615 50.2151 42.6881 50.1752C42.7613 50.1353 42.8544 50.1153 42.9741 50.102C43.0871 50.0887 43.24 50.0821 43.4329 50.0821C43.6124 50.0821 43.7654 50.0887 43.885 50.102C44.0047 50.1153 44.0978 50.1419 44.1643 50.1752C44.2308 50.2151 44.2774 50.255 44.304 50.3015C44.3306 50.348 44.3505 50.4012 44.3505 50.4677V51.9439C44.9822 51.2391 45.6072 50.7271 46.2323 50.4012C46.8573 50.0754 47.489 49.9092 48.1274 49.9092C48.8721 49.9092 49.4972 50.0355 50.0092 50.2882C50.5145 50.5409 50.9268 50.88 51.246 51.2989C51.5585 51.7178 51.7846 52.2165 51.9242 52.7817C52.0639 53.3469 52.1304 54.0318 52.1304 54.8231V61.6388H52.1237Z" fill="#38D0B7"/>
<path d="M61.4261 60.821C61.4261 61.0604 61.4062 61.2532 61.3729 61.3928C61.3397 61.5325 61.2931 61.6389 61.2266 61.7054C61.1601 61.7718 61.0604 61.8317 60.9274 61.8915C60.7944 61.9514 60.6415 61.9979 60.4752 62.0312C60.309 62.0711 60.1228 62.0977 59.9366 62.1243C59.7438 62.1509 59.5576 62.1642 59.3648 62.1642C58.7863 62.1642 58.2876 62.091 57.8753 61.9314C57.463 61.7785 57.1239 61.5458 56.8579 61.2399C56.5919 60.9274 56.3991 60.535 56.2794 60.0629C56.1597 59.5908 56.0999 59.0256 56.0999 58.3806V51.8575H54.5373C54.4109 51.8575 54.3112 51.791 54.238 51.658C54.1649 51.525 54.125 51.3123 54.125 51.013C54.125 50.8534 54.1383 50.7205 54.1582 50.6141C54.1782 50.5077 54.2048 50.4146 54.238 50.3481C54.2713 50.2749 54.3112 50.2284 54.371 50.2018C54.4242 50.1752 54.4841 50.1553 54.5506 50.1553H56.0999V47.5021C56.0999 47.4423 56.1132 47.3891 56.1398 47.3425C56.1664 47.296 56.2196 47.2494 56.2994 47.2095C56.3792 47.1696 56.4856 47.143 56.6185 47.1297C56.7515 47.1164 56.9178 47.1031 57.1173 47.1031C57.3234 47.1031 57.4963 47.1098 57.6293 47.1297C57.7622 47.1497 57.862 47.1763 57.9418 47.2095C58.0149 47.2494 58.0681 47.2893 58.1014 47.3425C58.1346 47.3957 58.1479 47.4489 58.1479 47.5021V50.1553H61.0138C61.0803 50.1553 61.1402 50.1685 61.1867 50.2018C61.2333 50.2284 61.2798 50.2816 61.3197 50.3481C61.3596 50.4212 61.3862 50.5077 61.3995 50.6141C61.4194 50.7205 61.4261 50.8534 61.4261 51.013C61.4261 51.3123 61.3862 51.525 61.3131 51.658C61.2399 51.791 61.1402 51.8575 61.0138 51.8575H58.1479V58.088C58.1479 58.8594 58.261 59.4379 58.487 59.8302C58.7131 60.2225 59.1187 60.422 59.7105 60.422C59.9034 60.422 60.0696 60.4021 60.2159 60.3688C60.3622 60.3289 60.4952 60.2957 60.6149 60.2491C60.7279 60.2092 60.8276 60.1693 60.9141 60.1294C60.9939 60.0895 61.0737 60.0762 61.1402 60.0762C61.1801 60.0762 61.22 60.0895 61.2599 60.1095C61.2998 60.1294 61.3264 60.1693 61.3463 60.2292C61.3663 60.289 61.3862 60.3688 61.3995 60.4619C61.4194 60.5483 61.4261 60.668 61.4261 60.821Z" fill="#38D0B7"/>
<path d="M35.1254 85.1591C35.1254 85.2256 35.1054 85.2854 35.0722 85.3319C35.0389 85.3851 34.9791 85.4184 34.8927 85.4516C34.8062 85.4782 34.6998 85.5048 34.5668 85.5248C34.4339 85.5447 34.261 85.558 34.0482 85.558C33.8554 85.558 33.6825 85.5447 33.5428 85.5248C33.4032 85.5048 33.2901 85.4782 33.2103 85.4516C33.1306 85.425 33.0707 85.3851 33.0375 85.3319C33.0042 85.2854 32.9843 85.2256 32.9843 85.1591V71.1753H32.9577L27.299 85.2189C27.2724 85.2788 27.2391 85.3253 27.1926 85.3652C27.1461 85.4051 27.0796 85.445 26.9931 85.4716C26.9067 85.4982 26.8003 85.5248 26.6806 85.5314C26.5609 85.5447 26.4146 85.5514 26.255 85.5514C26.0821 85.5514 25.9359 85.5447 25.8095 85.5248C25.6832 85.5048 25.5834 85.4849 25.497 85.4583C25.4172 85.4317 25.3507 85.3918 25.3042 85.3519C25.2576 85.312 25.231 85.2655 25.2111 85.2189L19.8051 71.1753H19.7918V85.1591C19.7918 85.2256 19.7718 85.2854 19.7386 85.3319C19.7053 85.3851 19.6455 85.4184 19.559 85.4516C19.4726 85.4782 19.3595 85.5048 19.2266 85.5248C19.0936 85.5447 18.914 85.558 18.7012 85.558C18.4951 85.558 18.3289 85.5447 18.1892 85.5248C18.0562 85.5048 17.9432 85.4782 17.8634 85.4516C17.7836 85.425 17.7304 85.3851 17.6972 85.3319C17.6706 85.2854 17.6506 85.2256 17.6506 85.1591V70.3973C17.6506 70.0515 17.7437 69.8055 17.9299 69.6525C18.1161 69.4996 18.3222 69.4265 18.5483 69.4265H19.8583C20.1242 69.4265 20.3636 69.4531 20.5631 69.4996C20.7626 69.5528 20.9421 69.6259 21.095 69.7323C21.248 69.8387 21.3743 69.9784 21.4741 70.1446C21.5738 70.3108 21.6603 70.5037 21.74 70.7298L26.3282 82.353H26.388L31.1623 70.763C31.2554 70.517 31.3552 70.3042 31.4682 70.1313C31.5746 69.9584 31.6943 69.8188 31.8273 69.719C31.9603 69.6126 32.0999 69.5395 32.2595 69.493C32.4191 69.4464 32.6053 69.4265 32.8114 69.4265H34.1878C34.3142 69.4265 34.4339 69.4464 34.5469 69.4796C34.6599 69.5129 34.7597 69.5727 34.8395 69.6525C34.9193 69.7323 34.9858 69.8321 35.0323 69.9518C35.0855 70.0715 35.1054 70.2177 35.1054 70.3906V85.1591H35.1254Z" fill="#38D0B7"/>
<path d="M47.5734 85.1858C47.5734 85.2855 47.5402 85.3586 47.4737 85.4118C47.4072 85.4584 47.3141 85.4983 47.201 85.5249C47.0814 85.5515 46.9151 85.5648 46.689 85.5648C46.4762 85.5648 46.3034 85.5515 46.177 85.5249C46.0507 85.4983 45.9576 85.465 45.8977 85.4118C45.8379 85.3586 45.8113 85.2855 45.8113 85.1858V84.0686C45.3259 84.5873 44.7806 84.9929 44.1822 85.2855C43.5837 85.5781 42.9454 85.7177 42.2738 85.7177C41.6886 85.7177 41.1567 85.6446 40.6779 85.4916C40.1992 85.3387 39.8002 85.1193 39.4611 84.8267C39.1286 84.5341 38.8693 84.1817 38.6831 83.7628C38.4969 83.3439 38.4038 82.8584 38.4038 82.3265C38.4038 81.6948 38.5301 81.1495 38.7895 80.6907C39.0488 80.2253 39.4145 79.8462 39.8933 79.5337C40.3721 79.2278 40.9572 78.9951 41.6554 78.8488C42.3469 78.6959 43.1316 78.6161 44.0026 78.6161H45.5387V77.745C45.5387 77.3128 45.4921 76.9338 45.4057 76.6013C45.3126 76.2688 45.1663 75.9962 44.9668 75.7768C44.7607 75.5573 44.5014 75.3911 44.1822 75.2781C43.863 75.165 43.464 75.1118 42.9919 75.1118C42.4866 75.1118 42.0344 75.1717 41.6354 75.2914C41.2365 75.411 40.8841 75.544 40.5782 75.6903C40.279 75.8366 40.0263 75.9696 39.8201 76.0893C39.614 76.209 39.4677 76.2688 39.368 76.2688C39.3015 76.2688 39.2416 76.2489 39.1951 76.2156C39.1419 76.1824 39.102 76.1358 39.0621 76.0693C39.0222 76.0029 38.9956 75.9164 38.9823 75.8167C38.9624 75.7103 38.9557 75.5972 38.9557 75.4775C38.9557 75.2714 38.969 75.1052 38.9956 74.9855C39.0222 74.8658 39.0954 74.7528 39.2084 74.6464C39.3214 74.54 39.5143 74.4136 39.7869 74.2673C40.0595 74.1211 40.372 73.9881 40.7311 73.8684C41.0835 73.7487 41.4759 73.6489 41.8948 73.5692C42.3137 73.4894 42.7393 73.4495 43.1715 73.4495C43.976 73.4495 44.6543 73.5426 45.2195 73.7221C45.7847 73.9016 46.2369 74.1676 46.5826 74.52C46.9284 74.8724 47.1811 75.3047 47.3407 75.83C47.5003 76.3486 47.5734 76.9604 47.5734 77.6519V85.1858ZM45.5387 80.0856H43.7899C43.2247 80.0856 42.7393 80.1322 42.327 80.2253C41.9147 80.3184 41.569 80.458 41.2963 80.6442C41.0237 80.8304 40.8242 81.0564 40.6979 81.3158C40.5715 81.5751 40.505 81.8743 40.505 82.2134C40.505 82.7919 40.6912 83.2508 41.0569 83.5965C41.4227 83.9423 41.9413 84.1085 42.5996 84.1085C43.1382 84.1085 43.6369 83.9689 44.0957 83.6963C44.5546 83.4236 45.0333 83.0047 45.5387 82.4462V80.0856Z" fill="#38D0B7"/>
<path d="M61.6035 79.4142C61.6035 80.3916 61.4971 81.2694 61.2844 82.0474C61.0716 82.8253 60.7657 83.4836 60.3534 84.0289C59.9412 84.5742 59.4358 84.9864 58.8307 85.279C58.2256 85.5716 57.5341 85.7179 56.7561 85.7179C56.4236 85.7179 56.1177 85.6846 55.8385 85.6181C55.5592 85.5516 55.2799 85.4519 55.0139 85.3056C54.748 85.166 54.4753 84.9864 54.216 84.7736C53.95 84.5608 53.6707 84.3082 53.3715 84.0156V89.6011C53.3715 89.6676 53.3516 89.7275 53.3183 89.774C53.2851 89.8206 53.2319 89.8671 53.1587 89.9004C53.0856 89.9336 52.9792 89.9602 52.8462 89.9735C52.7132 89.9935 52.547 90.0001 52.3409 90.0001C52.1414 90.0001 51.9751 89.9935 51.8421 89.9735C51.7092 89.9536 51.6028 89.9336 51.523 89.9004C51.4432 89.8671 51.39 89.8272 51.3634 89.774C51.3368 89.7275 51.3235 89.6676 51.3235 89.6011V74.0015C51.3235 73.9284 51.3368 73.8685 51.3634 73.822C51.39 73.7754 51.4365 73.7355 51.5097 73.7023C51.5828 73.669 51.6759 73.6491 51.7956 73.6358C51.9086 73.6225 52.0549 73.6158 52.2145 73.6158C52.3874 73.6158 52.527 73.6225 52.6401 73.6358C52.7531 73.6491 52.8462 73.669 52.9194 73.7023C52.9925 73.7355 53.0457 73.7754 53.0723 73.822C53.0989 73.8685 53.1188 73.9284 53.1188 74.0015V75.5043C53.458 75.1585 53.7838 74.8527 54.0963 74.6C54.4088 74.3406 54.728 74.1279 55.0472 73.9616C55.3663 73.7954 55.6922 73.6624 56.0246 73.576C56.3571 73.4895 56.7162 73.443 57.0819 73.443C57.8931 73.443 58.5847 73.6025 59.1565 73.9151C59.7284 74.2276 60.1938 74.6598 60.5529 75.2051C60.912 75.7503 61.178 76.3887 61.3442 77.1068C61.5237 77.8383 61.6035 78.6029 61.6035 79.4142ZM59.4824 79.6469C59.4824 79.0751 59.4358 78.5231 59.3494 77.9912C59.2629 77.4592 59.11 76.9871 58.8972 76.5682C58.6844 76.1559 58.3985 75.8235 58.0394 75.5774C57.6804 75.3314 57.2348 75.2051 56.7029 75.2051C56.4369 75.2051 56.1709 75.245 55.9183 75.3248C55.6589 75.4046 55.3996 75.5309 55.1336 75.6971C54.8676 75.8634 54.5884 76.0894 54.2958 76.3687C54.0032 76.648 53.6973 76.9871 53.3715 77.3927V81.8346C53.9367 82.5195 54.4753 83.0448 54.9807 83.4105C55.486 83.7762 56.018 83.9558 56.5766 83.9558C57.0952 83.9558 57.5341 83.8294 57.9064 83.5834C58.2788 83.3373 58.578 83.0049 58.8041 82.5926C59.0302 82.1803 59.2031 81.7149 59.3095 81.2029C59.4292 80.6909 59.4824 80.1722 59.4824 79.6469Z" fill="#38D0B7"/>
<path d="M13.7763 43.0603H10.9038C9.74012 43.0603 8.7959 42.1161 8.7959 40.9524V38.0799C8.7959 36.9162 9.74012 35.972 10.9038 35.972H13.7763C14.94 35.972 15.8842 36.9162 15.8842 38.0799V40.9524C15.8842 42.1227 14.94 43.0603 13.7763 43.0603Z" fill="url(#paint0_linear)"/>
<path d="M8.7959 39.5209C8.7959 41.4783 10.3827 43.065 12.3401 43.065C14.2974 43.065 15.8842 41.4783 15.8842 39.5209C15.8842 37.5635 14.2974 35.9767 12.3401 35.9767C10.3827 35.9767 8.7959 37.5635 8.7959 39.5209Z" fill="url(#paint1_linear)"/>
<path d="M24.5749 10.9168C24.7146 13.2441 24.2691 15.598 23.2783 17.7059C21.9949 20.4388 20.1663 22.8858 18.504 25.3927C17.1408 27.4473 15.6979 29.4555 14.2616 31.4636C13.7496 32.1817 13.1977 33.1526 12.1604 32.8533C11.3226 32.614 10.6975 31.7495 10.2254 31.0646C8.6096 28.7107 6.96053 26.3701 5.33806 24.0162C3.33658 21.1038 0.809787 18.0384 0.184739 14.4676C-0.460258 10.8038 0.603654 6.94043 3.06395 4.14766C6.55491 0.171286 12.4463 -1.09211 17.2871 0.995818C20.2594 2.27916 22.7463 4.67296 23.9033 7.71841C24.0762 8.17058 24.2159 8.63604 24.3223 9.1015C24.4619 9.69995 24.535 10.305 24.5749 10.9168Z" fill="url(#paint2_linear)"/>
<defs>
<linearGradient id="paint0_linear" x1="12.3397" y1="1.27193" x2="12.3397" y2="32.1729" gradientUnits="userSpaceOnUse">
<stop stop-color="#35B3EA"/>
<stop offset="1" stop-color="#38D0B7"/>
</linearGradient>
<linearGradient id="paint1_linear" x1="12.3397" y1="1.27004" x2="12.3397" y2="32.171" gradientUnits="userSpaceOnUse">
<stop stop-color="#35B3EA"/>
<stop offset="1" stop-color="#38D0B7"/>
</linearGradient>
<linearGradient id="paint2_linear" x1="12.299" y1="1.38129" x2="12.299" y2="32.0872" gradientUnits="userSpaceOnUse">
<stop stop-color="#35B3EA"/>
<stop offset="1" stop-color="#38D0B7"/>
</linearGradient>
</defs>
</svg>
