<svg width="205" height="136" viewBox="0 0 205 136" fill="none" xmlns="http://www.w3.org/2000/svg">
<path d="M23.7116 111.684C23.7116 113.166 23.604 114.373 23.3769 115.281C23.1498 116.202 22.8032 116.967 22.3251 117.588C21.8469 118.21 21.2374 118.688 20.4963 118.999C19.7552 119.322 18.8468 119.477 17.795 119.477C17.3168 119.477 16.9104 119.441 16.5758 119.393C16.2411 119.333 15.9901 119.262 15.8108 119.19C15.6315 119.118 15.512 119.035 15.4402 118.927C15.3685 118.831 15.3207 118.724 15.2968 118.592C15.261 118.461 15.249 118.329 15.2371 118.198C15.2251 118.066 15.2251 117.899 15.2251 117.708C15.2251 117.445 15.2371 117.206 15.261 117.015C15.2849 116.823 15.3207 116.668 15.3685 116.548C15.4163 116.429 15.4761 116.345 15.5478 116.297C15.6195 116.25 15.7032 116.214 15.7988 116.214C15.8825 116.214 16.0618 116.238 16.3248 116.274C16.5877 116.309 16.8865 116.333 17.2332 116.333C17.7232 116.333 18.1416 116.262 18.4882 116.106C18.8348 115.963 19.1217 115.712 19.3488 115.377C19.5759 115.042 19.7313 114.612 19.8389 114.074C19.9465 113.536 19.9943 112.724 19.9943 111.648V90.7185C19.9943 90.6109 20.0182 90.5153 20.0779 90.4316C20.1377 90.3479 20.2333 90.2643 20.3768 90.2045C20.5202 90.1447 20.7114 90.0969 20.9505 90.073C21.1895 90.0491 21.4884 90.0252 21.8469 90.0252C22.2055 90.0252 22.5044 90.0372 22.7434 90.073C22.9825 90.1089 23.1737 90.1447 23.3171 90.2045C23.4606 90.2643 23.5562 90.336 23.616 90.4316C23.6757 90.5153 23.6996 90.6228 23.6996 90.7185V111.684H23.7116Z" fill="#38D0B7"/>
<path d="M45.6567 110.823C45.6567 111.002 45.597 111.134 45.4774 111.229C45.3579 111.313 45.1906 111.385 44.9874 111.433C44.7722 111.48 44.4734 111.504 44.067 111.504C43.6845 111.504 43.3738 111.48 43.1466 111.433C42.9195 111.385 42.7522 111.325 42.6446 111.229C42.5371 111.134 42.4892 111.002 42.4892 110.823V108.815C41.6167 109.747 40.6366 110.476 39.5608 111.002C38.4851 111.528 37.3376 111.779 36.1304 111.779C35.0785 111.779 34.1223 111.648 33.2617 111.373C32.4011 111.098 31.6839 110.704 31.0743 110.178C30.4767 109.652 30.0105 109.018 29.6758 108.265C29.3412 107.512 29.1738 106.64 29.1738 105.683C29.1738 104.548 29.4009 103.568 29.8671 102.743C30.3332 101.906 30.9907 101.225 31.8513 100.663C32.7119 100.113 33.7637 99.695 35.0187 99.432C36.2618 99.1571 37.6723 99.0137 39.2381 99.0137H41.9992V97.4479C41.9992 96.6709 41.9155 95.9896 41.7601 95.392C41.5928 94.7943 41.3298 94.3043 40.9712 93.9098C40.6007 93.5154 40.1345 93.2166 39.5608 93.0134C38.9871 92.8102 38.2699 92.7146 37.4213 92.7146C36.5128 92.7146 35.7001 92.8221 34.9829 93.0373C34.2657 93.2524 33.6322 93.4915 33.0824 93.7545C32.5445 94.0174 32.0903 94.2565 31.7198 94.4716C31.3492 94.6868 31.0863 94.7943 30.907 94.7943C30.7875 94.7943 30.6799 94.7585 30.5962 94.6987C30.5006 94.639 30.4289 94.5553 30.3572 94.4358C30.2854 94.3162 30.2376 94.1608 30.2137 93.9816C30.1779 93.7903 30.1659 93.5871 30.1659 93.372C30.1659 93.0014 30.1898 92.7026 30.2376 92.4875C30.2854 92.2723 30.4169 92.0691 30.6201 91.8779C30.8233 91.6866 31.1699 91.4595 31.66 91.1966C32.1501 90.9336 32.7119 90.6945 33.3573 90.4794C33.9908 90.2642 34.696 90.0849 35.449 89.9415C36.2021 89.7981 36.9671 89.7264 37.744 89.7264C39.1903 89.7264 40.4095 89.8937 41.4254 90.2164C42.4414 90.5392 43.2542 91.0173 43.8758 91.6508C44.4973 92.2843 44.9515 93.0612 45.2384 94.0055C45.5253 94.9378 45.6567 96.0374 45.6567 97.2805V110.823ZM41.9992 101.655H38.8436C37.8277 101.655 36.9551 101.739 36.214 101.906C35.473 102.074 34.8514 102.325 34.3613 102.659C33.8713 102.994 33.5127 103.4 33.2856 103.867C33.0585 104.333 32.939 104.871 32.939 105.48C32.939 106.52 33.2736 107.345 33.931 107.966C34.5884 108.588 35.5208 108.887 36.7041 108.887C37.6723 108.887 38.5687 108.636 39.3935 108.146C40.2182 107.656 41.0788 106.903 41.9872 105.898V101.655H41.9992Z" fill="#38D0B7"/>
<path d="M69.5984 110.799C69.5984 110.919 69.5745 111.014 69.5267 111.098C69.4789 111.182 69.3833 111.253 69.2518 111.313C69.1203 111.373 68.941 111.421 68.7259 111.445C68.5107 111.48 68.2477 111.492 67.937 111.492C67.5903 111.492 67.3154 111.48 67.1003 111.445C66.8851 111.409 66.7178 111.373 66.5863 111.313C66.4548 111.253 66.3712 111.182 66.3353 111.098C66.2875 111.014 66.2636 110.919 66.2636 110.799V108.146C65.1161 109.413 63.9925 110.333 62.869 110.907C61.7574 111.48 60.6219 111.779 59.4744 111.779C58.1357 111.779 57.0121 111.552 56.0917 111.11C55.1833 110.668 54.4423 110.058 53.8685 109.293C53.3067 108.528 52.9004 107.632 52.6493 106.616C52.3983 105.6 52.2788 104.357 52.2788 102.898V90.7185C52.2788 90.5989 52.3027 90.5033 52.3625 90.4196C52.4103 90.336 52.5179 90.2643 52.6613 90.1925C52.8047 90.1208 53.0079 90.085 53.247 90.0611C53.486 90.0372 53.7849 90.0252 54.1434 90.0252C54.502 90.0252 54.8008 90.0372 55.0399 90.0611C55.279 90.085 55.4702 90.1328 55.6136 90.1925C55.7571 90.2643 55.8527 90.336 55.9125 90.4196C55.9722 90.5033 55.9961 90.5989 55.9961 90.7185V102.408C55.9961 103.58 56.0798 104.524 56.2591 105.229C56.4264 105.934 56.6894 106.544 57.036 107.034C57.3827 107.536 57.8249 107.919 58.3628 108.193C58.9007 108.468 59.5222 108.6 60.2394 108.6C61.1597 108.6 62.0801 108.277 62.9885 107.62C63.9089 106.962 64.8771 106.006 65.905 104.739V90.7185C65.905 90.5989 65.9289 90.5033 65.9887 90.4196C66.0365 90.336 66.1441 90.2643 66.2875 90.1925C66.4309 90.1208 66.6222 90.085 66.8612 90.0611C67.0883 90.0372 67.3871 90.0252 67.7696 90.0252C68.1282 90.0252 68.427 90.0372 68.6661 90.0611C68.9052 90.085 69.0844 90.1328 69.2279 90.1925C69.3594 90.2643 69.4669 90.336 69.5267 90.4196C69.5984 90.5033 69.6223 90.5989 69.6223 90.7185V110.799H69.5984Z" fill="#38D0B7"/>
<path d="M93.6956 110.8C93.6956 110.919 93.6597 111.015 93.6 111.098C93.5402 111.182 93.4446 111.254 93.3131 111.314C93.1816 111.373 92.9904 111.421 92.7513 111.445C92.5123 111.481 92.2135 111.493 91.8549 111.493C91.4843 111.493 91.1736 111.481 90.9465 111.445C90.7074 111.409 90.5281 111.373 90.3847 111.314C90.2532 111.254 90.1576 111.182 90.0978 111.098C90.038 111.015 90.0022 110.919 90.0022 110.8V99.05C90.0022 97.9026 89.9185 96.9822 89.7392 96.2889C89.5599 95.5957 89.297 94.9861 88.9623 94.4841C88.6157 93.9821 88.1734 93.5876 87.6355 93.3247C87.0977 93.0617 86.4642 92.9183 85.747 92.9183C84.8266 92.9183 83.9063 93.241 82.9859 93.8984C82.0655 94.5558 81.0974 95.512 80.0814 96.779V110.8C80.0814 110.919 80.0455 111.015 79.9857 111.098C79.926 111.182 79.8304 111.254 79.6989 111.314C79.5674 111.373 79.3762 111.421 79.1371 111.445C78.898 111.481 78.5992 111.493 78.2287 111.493C77.8701 111.493 77.5713 111.481 77.3322 111.445C77.0932 111.409 76.9019 111.373 76.7585 111.314C76.6151 111.254 76.5194 111.182 76.4716 111.098C76.4238 111.015 76.3999 110.919 76.3999 110.8V90.7189C76.3999 90.5994 76.4238 90.5038 76.4716 90.4201C76.5194 90.3365 76.6031 90.2647 76.7346 90.193C76.8661 90.1213 77.0334 90.0854 77.2485 90.0615C77.4517 90.0376 77.7267 90.0257 78.0733 90.0257C78.396 90.0257 78.6709 90.0376 78.8861 90.0615C79.1012 90.0854 79.2686 90.1333 79.3881 90.193C79.5076 90.2647 79.5913 90.3365 79.6391 90.4201C79.6869 90.5038 79.7228 90.5994 79.7228 90.7189V93.3725C80.8583 92.1055 81.9819 91.1851 83.1054 90.5994C84.229 90.0137 85.3645 89.7149 86.512 89.7149C87.8507 89.7149 88.9742 89.942 89.8946 90.3962C90.803 90.8504 91.5441 91.46 92.1178 92.213C92.6796 92.9661 93.086 93.8625 93.337 94.8785C93.588 95.8945 93.7076 97.1256 93.7076 98.548V110.8H93.6956Z" fill="#38D0B7"/>
<path d="M110.418 109.329C110.418 109.759 110.382 110.106 110.322 110.357C110.262 110.608 110.179 110.799 110.059 110.919C109.94 111.038 109.76 111.146 109.521 111.253C109.282 111.361 109.007 111.445 108.708 111.504C108.41 111.576 108.075 111.624 107.74 111.672C107.394 111.72 107.059 111.743 106.712 111.743C105.672 111.743 104.776 111.612 104.035 111.325C103.294 111.05 102.684 110.632 102.206 110.082C101.728 109.52 101.381 108.815 101.166 107.966C100.951 107.118 100.843 106.102 100.843 104.942V93.2166H98.0345C97.8074 93.2166 97.6281 93.0971 97.4967 92.858C97.3652 92.619 97.2935 92.2365 97.2935 91.6986C97.2935 91.4118 97.3174 91.1727 97.3532 90.9815C97.3891 90.7902 97.4369 90.6229 97.4967 90.5033C97.5564 90.3719 97.6281 90.2882 97.7357 90.2404C97.8313 90.1926 97.9389 90.1567 98.0584 90.1567H100.843V85.3875C100.843 85.28 100.867 85.1843 100.915 85.1007C100.963 85.017 101.059 84.9333 101.202 84.8616C101.345 84.7899 101.537 84.7421 101.776 84.7182C102.015 84.6943 102.314 84.6704 102.672 84.6704C103.043 84.6704 103.354 84.6823 103.593 84.7182C103.832 84.754 104.011 84.8019 104.154 84.8616C104.286 84.9333 104.381 85.0051 104.441 85.1007C104.501 85.1963 104.525 85.2919 104.525 85.3875V90.1567H109.677C109.796 90.1567 109.904 90.1806 109.987 90.2404C110.071 90.2882 110.155 90.3838 110.226 90.5033C110.298 90.6348 110.346 90.7902 110.37 90.9815C110.406 91.1727 110.418 91.4118 110.418 91.6986C110.418 92.2365 110.346 92.619 110.214 92.858C110.083 93.0971 109.904 93.2166 109.677 93.2166H104.525V104.416C104.525 105.803 104.728 106.843 105.134 107.548C105.541 108.253 106.27 108.612 107.334 108.612C107.68 108.612 107.979 108.576 108.242 108.516C108.505 108.444 108.744 108.385 108.959 108.301C109.163 108.229 109.342 108.158 109.497 108.086C109.641 108.014 109.784 107.99 109.904 107.99C109.975 107.99 110.047 108.014 110.119 108.05C110.191 108.086 110.238 108.158 110.274 108.265C110.31 108.373 110.346 108.516 110.37 108.684C110.406 108.839 110.418 109.054 110.418 109.329Z" fill="#38D0B7"/>
<path d="M157.403 110.776C157.403 110.895 157.367 111.003 157.308 111.086C157.248 111.182 157.14 111.242 156.985 111.301C156.829 111.349 156.638 111.397 156.399 111.433C156.16 111.469 155.849 111.493 155.467 111.493C155.12 111.493 154.809 111.469 154.558 111.433C154.307 111.397 154.104 111.349 153.961 111.301C153.817 111.254 153.71 111.182 153.65 111.086C153.59 111.003 153.554 110.895 153.554 110.776V85.6388H153.507L143.335 110.883C143.287 110.991 143.227 111.074 143.143 111.146C143.06 111.218 142.94 111.29 142.785 111.337C142.63 111.385 142.438 111.433 142.223 111.445C142.008 111.469 141.745 111.481 141.458 111.481C141.147 111.481 140.884 111.469 140.657 111.433C140.43 111.397 140.251 111.361 140.096 111.313C139.952 111.266 139.833 111.194 139.749 111.122C139.665 111.05 139.617 110.967 139.582 110.883L129.864 85.6388H129.84V110.776C129.84 110.895 129.804 111.003 129.744 111.086C129.685 111.182 129.577 111.242 129.422 111.301C129.266 111.349 129.063 111.397 128.824 111.433C128.585 111.469 128.262 111.493 127.88 111.493C127.509 111.493 127.21 111.469 126.959 111.433C126.72 111.397 126.517 111.349 126.374 111.301C126.23 111.254 126.135 111.182 126.075 111.086C126.027 111.003 125.991 110.895 125.991 110.776V84.2403C125.991 83.6188 126.159 83.1765 126.493 82.9016C126.828 82.6267 127.198 82.4952 127.605 82.4952H129.96C130.438 82.4952 130.868 82.543 131.227 82.6267C131.585 82.7223 131.908 82.8538 132.183 83.0451C132.458 83.2363 132.685 83.4873 132.864 83.7861C133.043 84.085 133.199 84.4316 133.342 84.838L141.59 105.731H141.697L150.279 84.8977C150.447 84.4555 150.626 84.073 150.829 83.7622C151.02 83.4515 151.236 83.2004 151.475 83.0212C151.714 82.8299 151.965 82.6984 152.252 82.6148C152.538 82.5311 152.873 82.4952 153.244 82.4952H155.718C155.945 82.4952 156.16 82.5311 156.363 82.5909C156.566 82.6506 156.746 82.7582 156.889 82.9016C157.033 83.0451 157.152 83.2244 157.236 83.4395C157.331 83.6547 157.367 83.9176 157.367 84.2284V110.776H157.403Z" fill="#38D0B7"/>
<path d="M179.779 110.823C179.779 111.002 179.72 111.134 179.6 111.229C179.48 111.313 179.313 111.385 179.11 111.433C178.895 111.48 178.596 111.504 178.19 111.504C177.807 111.504 177.496 111.48 177.269 111.433C177.042 111.385 176.875 111.325 176.767 111.229C176.66 111.134 176.612 111.002 176.612 110.823V108.815C175.739 109.747 174.759 110.476 173.683 111.002C172.608 111.528 171.46 111.779 170.253 111.779C169.201 111.779 168.245 111.648 167.384 111.373C166.524 111.098 165.806 110.704 165.197 110.178C164.599 109.652 164.133 109.018 163.798 108.265C163.464 107.512 163.296 106.64 163.296 105.683C163.296 104.548 163.523 103.568 163.99 102.743C164.456 101.906 165.113 101.225 165.974 100.663C166.834 100.113 167.886 99.695 169.141 99.432C170.384 99.1571 171.795 99.0137 173.361 99.0137H176.122V97.4479C176.122 96.6709 176.038 95.9896 175.883 95.392C175.715 94.7943 175.452 94.3043 175.094 93.9098C174.723 93.5154 174.257 93.2166 173.683 93.0134C173.11 92.8102 172.392 92.7146 171.544 92.7146C170.635 92.7146 169.823 92.8221 169.105 93.0373C168.388 93.2524 167.755 93.4915 167.205 93.7545C166.667 94.0174 166.213 94.2565 165.842 94.4716C165.472 94.6868 165.209 94.7943 165.03 94.7943C164.91 94.7943 164.802 94.7585 164.719 94.6987C164.623 94.639 164.551 94.5553 164.48 94.4358C164.408 94.3162 164.36 94.1608 164.336 93.9816C164.3 93.7903 164.288 93.5871 164.288 93.372C164.288 93.0014 164.312 92.7026 164.36 92.4875C164.408 92.2723 164.539 92.0691 164.743 91.8779C164.946 91.6866 165.293 91.4595 165.783 91.1966C166.273 90.9336 166.834 90.6945 167.48 90.4794C168.113 90.2642 168.819 90.0849 169.572 89.9415C170.325 89.7981 171.09 89.7264 171.867 89.7264C173.313 89.7264 174.532 89.8937 175.548 90.2164C176.564 90.5392 177.377 91.0173 177.998 91.6508C178.62 92.2843 179.074 93.0612 179.361 94.0055C179.648 94.9378 179.779 96.0374 179.779 97.2805V110.823ZM176.122 101.655H172.978C171.962 101.655 171.09 101.739 170.349 101.906C169.607 102.074 168.986 102.325 168.496 102.659C168.006 102.994 167.647 103.4 167.42 103.867C167.193 104.333 167.073 104.871 167.073 105.48C167.073 106.52 167.408 107.345 168.066 107.966C168.723 108.588 169.655 108.887 170.839 108.887C171.807 108.887 172.703 108.636 173.528 108.146C174.353 107.656 175.213 106.903 176.122 105.898V101.655Z" fill="#38D0B7"/>
<path d="M205 100.449C205 102.206 204.809 103.783 204.426 105.182C204.044 106.58 203.494 107.764 202.753 108.744C202.012 109.724 201.103 110.465 200.016 110.991C198.928 111.517 197.685 111.78 196.286 111.78C195.689 111.78 195.139 111.72 194.637 111.6C194.135 111.481 193.633 111.302 193.155 111.039C192.677 110.788 192.187 110.465 191.72 110.082C191.242 109.7 190.74 109.246 190.202 108.72V118.76C190.202 118.88 190.167 118.987 190.107 119.071C190.047 119.155 189.951 119.238 189.82 119.298C189.688 119.358 189.497 119.406 189.258 119.43C189.019 119.465 188.72 119.477 188.35 119.477C187.991 119.477 187.692 119.465 187.453 119.43C187.214 119.394 187.023 119.358 186.88 119.298C186.736 119.238 186.641 119.167 186.593 119.071C186.545 118.987 186.521 118.88 186.521 118.76V90.7189C186.521 90.5875 186.545 90.4799 186.593 90.3962C186.641 90.3125 186.724 90.2408 186.856 90.1811C186.987 90.1213 187.154 90.0854 187.37 90.0615C187.573 90.0376 187.836 90.0257 188.123 90.0257C188.433 90.0257 188.684 90.0376 188.888 90.0615C189.091 90.0854 189.258 90.1213 189.39 90.1811C189.521 90.2408 189.617 90.3125 189.665 90.3962C189.712 90.4799 189.748 90.5875 189.748 90.7189V93.4203C190.358 92.7987 190.944 92.2489 191.505 91.7947C192.067 91.3285 192.641 90.946 193.215 90.6472C193.788 90.3484 194.374 90.1094 194.972 89.954C195.569 89.7986 196.215 89.7149 196.872 89.7149C198.33 89.7149 199.573 90.0018 200.601 90.5636C201.629 91.1253 202.466 91.9023 203.111 92.8824C203.757 93.8625 204.235 95.01 204.534 96.3009C204.857 97.6157 205 98.9903 205 100.449ZM201.187 100.867C201.187 99.8389 201.103 98.8468 200.948 97.8906C200.793 96.9344 200.518 96.0858 200.135 95.3327C199.753 94.5917 199.239 93.994 198.593 93.5518C197.948 93.1095 197.147 92.8824 196.191 92.8824C195.713 92.8824 195.235 92.9541 194.78 93.0975C194.314 93.241 193.848 93.4681 193.37 93.7669C192.892 94.0657 192.39 94.4721 191.864 94.9741C191.338 95.4762 190.788 96.0857 190.202 96.8149V104.799C191.218 106.03 192.187 106.975 193.095 107.632C194.003 108.29 194.96 108.612 195.964 108.612C196.896 108.612 197.685 108.385 198.354 107.943C199.024 107.501 199.562 106.903 199.968 106.162C200.374 105.421 200.685 104.584 200.876 103.664C201.091 102.743 201.187 101.811 201.187 100.867Z" fill="#38D0B7"/>
<path d="M128.969 122.31C129.088 122.238 129.208 122.227 129.351 122.238C129.494 122.25 129.614 122.31 129.698 122.43C129.769 122.549 129.781 122.693 129.769 122.86C129.387 125.203 128.574 127.988 127.307 131.155C127.259 131.311 127.152 131.43 127.032 131.49C126.913 131.538 126.793 131.562 126.65 131.502C126.506 131.454 126.411 131.347 126.351 131.227C126.303 131.107 126.303 130.964 126.363 130.809C127.594 127.677 128.419 124.964 128.777 122.669C128.813 122.513 128.885 122.394 128.969 122.31ZM134.276 119.358C134.359 119.274 134.503 119.214 134.658 119.202C134.802 119.202 134.921 119.25 135.029 119.358C135.148 119.442 135.208 119.597 135.208 119.788V132.614C135.208 133.343 134.933 133.952 134.395 134.442C133.977 134.789 133.331 134.992 132.483 135.028C131.933 135.04 131.06 134.885 129.841 134.598C129.662 134.55 129.53 134.454 129.447 134.323C129.363 134.203 129.339 134.048 129.375 133.869C129.423 133.725 129.518 133.594 129.65 133.51C129.757 133.438 129.913 133.438 130.104 133.498C131.18 133.725 132.052 133.809 132.698 133.761C133.272 133.725 133.666 133.57 133.929 133.271C134.072 133.08 134.132 132.781 134.132 132.398V119.8C134.108 119.597 134.168 119.453 134.276 119.358ZM138.758 122.394C138.806 122.274 138.901 122.191 139.033 122.131C139.152 122.083 139.296 122.083 139.415 122.131C139.535 122.179 139.642 122.286 139.714 122.442C140.718 124.844 141.471 127.725 141.937 131.084C141.949 131.263 141.937 131.394 141.866 131.514C141.782 131.633 141.662 131.693 141.495 131.705C141.328 131.717 141.232 131.705 141.137 131.633C141.029 131.55 140.957 131.43 140.933 131.251C140.515 128 139.798 125.167 138.782 122.824C138.698 122.669 138.698 122.513 138.758 122.394Z" fill="#38D0B7"/>
<path d="M147.352 131.347C146.826 133.689 146.396 134.944 146.049 135.088C145.93 135.136 145.822 135.136 145.703 135.088C145.559 135.04 145.463 134.944 145.404 134.849C145.356 134.705 145.368 134.574 145.416 134.395C146.575 131.299 147.173 127.701 147.173 123.601V122.466H145.834C145.679 122.466 145.535 122.418 145.452 122.322C145.368 122.251 145.308 122.119 145.308 121.952C145.308 121.808 145.356 121.689 145.452 121.593C145.535 121.521 145.679 121.474 145.834 121.474H148.117V119.788C148.117 119.633 148.153 119.489 148.237 119.406C148.32 119.334 148.464 119.286 148.619 119.286C148.762 119.286 148.858 119.334 148.966 119.406C149.073 119.489 149.121 119.633 149.121 119.788V121.474H151.536C151.691 121.474 151.798 121.509 151.882 121.581C151.966 121.665 152.026 121.808 152.026 121.964C152.026 122.107 151.978 122.227 151.882 122.31C151.798 122.418 151.691 122.466 151.536 122.466H148.165V123.601L148.129 124.593H149.778C150.316 124.593 150.723 124.749 150.974 125.059C151.201 125.334 151.32 125.777 151.32 126.291C151.308 128.932 151.177 131.12 150.986 132.865C150.782 133.869 150.448 134.55 150.041 134.825C149.396 135.243 148.5 135.255 147.352 134.909C147.161 134.837 147.041 134.729 146.97 134.61C146.898 134.49 146.886 134.335 146.934 134.179C147.041 133.845 147.304 133.749 147.663 133.845C148.511 134.108 149.121 134.144 149.468 133.893C149.659 133.749 149.814 133.474 149.934 133.056C150.053 132.626 150.137 131.741 150.197 130.414L150.245 126.446C150.245 126.111 150.173 125.884 150.018 125.765C149.826 125.645 149.599 125.573 149.324 125.573H148.069C147.962 127.833 147.699 129.745 147.352 131.347ZM160.309 127.032C160.428 126.912 160.572 126.876 160.703 126.888C160.823 126.9 160.942 126.972 161.05 127.091C161.134 127.211 161.134 127.33 161.134 127.462C161.086 127.916 159.998 128.586 157.966 129.518V129.53C158.468 131.263 159.508 132.912 161.026 134.43C161.134 134.55 161.205 134.658 161.205 134.789C161.205 134.909 161.158 135.028 161.062 135.16C160.954 135.267 160.835 135.303 160.715 135.303C160.56 135.303 160.44 135.255 160.333 135.124C157.679 132.398 156.269 129.088 156.125 125.251L154.787 125.43C154.524 125.466 154.321 125.573 154.177 125.729C154.058 125.872 154.022 126.04 154.058 126.267V133.737C155.444 133.355 156.472 133.02 157.07 132.769C157.225 132.697 157.368 132.685 157.488 132.733C157.596 132.781 157.679 132.877 157.727 133.008C157.775 133.128 157.799 133.271 157.763 133.391C157.715 133.51 157.619 133.618 157.5 133.665L156.58 134.024C153.52 134.944 151.787 135.291 151.416 135.052C151.296 134.968 151.225 134.861 151.213 134.705C151.201 134.562 151.213 134.442 151.285 134.323C151.368 134.215 151.488 134.144 151.655 134.132L153.077 133.928V126.052C153.006 125.657 153.077 125.299 153.281 125.024C153.484 124.725 153.819 124.557 154.249 124.498C156.281 124.235 158.038 123.816 159.424 123.314C159.604 123.267 159.735 123.278 159.879 123.35C159.998 123.398 160.106 123.506 160.153 123.661C160.189 123.804 160.165 123.936 160.118 124.055C159.962 124.294 159.006 124.605 157.297 125L157.106 125.048C157.141 126.398 157.333 127.57 157.631 128.526C158.695 128.084 159.58 127.593 160.309 127.032ZM153.783 122.31C153.388 123.219 152.934 123.948 152.408 124.498C152.265 124.641 152.133 124.725 151.978 124.737C151.858 124.749 151.739 124.701 151.631 124.545C151.512 124.402 151.476 124.283 151.488 124.163C151.5 124.043 151.595 123.9 151.727 123.733C152.671 122.633 153.257 121.282 153.46 119.717C153.472 119.537 153.544 119.406 153.663 119.334C153.747 119.25 153.866 119.226 154.01 119.25C154.165 119.262 154.273 119.322 154.356 119.406C154.476 119.585 154.428 120.099 154.201 120.984H160.62C160.775 120.984 160.895 121.019 160.99 121.103C161.074 121.187 161.134 121.33 161.134 121.486C161.134 121.605 161.086 121.725 160.99 121.832C160.907 121.94 160.787 121.988 160.62 121.988H153.89L153.783 122.31Z" fill="#38D0B7"/>
<path d="M167.696 119.286C167.815 119.238 167.935 119.214 168.078 119.274C168.198 119.346 168.305 119.417 168.353 119.537C168.401 119.68 168.401 119.836 168.341 119.991C167.397 122.131 166.345 123.732 165.138 124.724C165.018 124.844 164.875 124.904 164.743 124.88C164.624 124.868 164.504 124.808 164.397 124.7C164.217 124.437 164.253 124.198 164.48 123.947C165.795 122.716 166.787 121.258 167.397 119.585C167.468 119.417 167.564 119.334 167.696 119.286ZM164.791 129.482C164.671 129.47 164.552 129.398 164.444 129.29C164.361 129.171 164.325 129.027 164.337 128.908C164.349 128.788 164.42 128.669 164.564 128.561C166.333 126.983 167.66 125.131 168.508 123.027C168.58 122.884 168.688 122.764 168.783 122.716C168.903 122.668 169.022 122.68 169.178 122.728C169.297 122.776 169.381 122.884 169.417 122.991C169.465 123.135 169.465 123.266 169.381 123.422C168.783 124.689 168.221 125.764 167.624 126.601V134.836C167.624 134.992 167.576 135.135 167.468 135.231C167.385 135.303 167.265 135.35 167.122 135.374C166.978 135.362 166.859 135.326 166.751 135.255C166.668 135.147 166.608 135.016 166.608 134.836V127.88C165.687 128.968 165.054 129.505 164.791 129.482ZM170.122 125.119C169.967 125.119 169.823 125.071 169.739 124.975C169.656 124.892 169.596 124.748 169.596 124.593C169.596 124.449 169.644 124.354 169.739 124.246C169.823 124.163 169.967 124.103 170.122 124.103H179.887C180.043 124.103 180.162 124.139 180.246 124.222C180.318 124.306 180.366 124.426 180.366 124.593C180.366 124.736 180.318 124.856 180.246 124.951C180.162 125.059 180.043 125.107 179.887 125.107H177.676V132.864C177.676 133.546 177.557 134.059 177.341 134.43C176.911 135.052 176.051 135.35 174.843 135.315C174.186 135.279 173.194 135.075 171.903 134.705C171.748 134.657 171.628 134.562 171.568 134.442C171.52 134.322 171.497 134.179 171.556 134.048C171.64 133.785 171.891 133.677 172.238 133.749C173.887 134.239 175.142 134.394 175.943 134.215C176.242 134.143 176.445 133.916 176.588 133.557C176.66 133.366 176.672 133.127 176.672 132.804V125.107H170.122V125.119ZM179.146 120.051C179.302 120.051 179.421 120.087 179.517 120.158C179.589 120.242 179.636 120.385 179.636 120.541C179.636 120.684 179.589 120.804 179.517 120.888C179.433 120.995 179.314 121.043 179.146 121.043H170.995C170.851 121.043 170.72 120.995 170.624 120.899C170.54 120.816 170.481 120.696 170.481 120.529C170.481 120.385 170.528 120.266 170.624 120.17C170.708 120.087 170.851 120.051 170.995 120.051H179.146Z" fill="#38D0B7"/>
<path d="M24.7642 77.4035H19.6006C17.5088 77.4035 15.8115 75.7062 15.8115 73.6145V68.4509C15.8115 66.3591 17.5088 64.6618 19.6006 64.6618H24.7642C26.8559 64.6618 28.5532 66.3591 28.5532 68.4509V73.6145C28.5532 75.7182 26.8559 77.4035 24.7642 77.4035Z" fill="url(#paint0_linear)"/>
<path d="M23.3245 64.6752H21.0402C18.1525 64.6752 15.8115 67.0162 15.8115 69.9039V72.1882C15.8115 75.0759 18.1525 77.4169 21.0402 77.4169H23.3245C26.2122 77.4169 28.5532 75.0759 28.5532 72.1882V69.9039C28.5532 67.0162 26.2122 64.6752 23.3245 64.6752Z" fill="url(#paint1_linear)"/>
<path d="M44.1749 19.6236C44.426 23.8071 43.6251 28.0384 41.8441 31.8274C39.5373 36.74 36.2502 41.1387 33.262 45.6449C30.8117 49.3383 28.218 52.948 25.6362 56.5578C24.7158 57.8487 23.7237 59.5938 21.8591 59.0559C20.353 58.6256 19.2295 57.0717 18.3808 55.8406C15.4763 51.6093 12.512 47.4019 9.5955 43.1706C5.99771 37.9353 1.45564 32.4251 0.332079 26.0064C-0.827343 19.4204 1.08511 12.4758 5.50764 7.45567C11.7829 0.307898 22.373 -1.96313 31.0747 1.79005C36.4176 4.09694 40.8879 8.39994 42.9677 13.8743C43.2785 14.6871 43.5295 15.5238 43.7207 16.3605C43.9717 17.4363 44.1032 18.524 44.1749 19.6236Z" fill="url(#paint2_linear)"/>
<defs>
<linearGradient id="paint0_linear" x1="22.1818" y1="2.28636" x2="22.1818" y2="57.8327" gradientUnits="userSpaceOnUse">
<stop stop-color="#35B3EA"/>
<stop offset="1" stop-color="#38D0B7"/>
</linearGradient>
<linearGradient id="paint1_linear" x1="22.1818" y1="2.28785" x2="22.1818" y2="57.8342" gradientUnits="userSpaceOnUse">
<stop stop-color="#35B3EA"/>
<stop offset="1" stop-color="#38D0B7"/>
</linearGradient>
<linearGradient id="paint2_linear" x1="22.1082" y1="2.48295" x2="22.1082" y2="57.6787" gradientUnits="userSpaceOnUse">
<stop stop-color="#35B3EA"/>
<stop offset="1" stop-color="#38D0B7"/>
</linearGradient>
</defs>
</svg>
