<svg width="17" height="17" viewBox="0 0 17 17" fill="none" xmlns="http://www.w3.org/2000/svg">
<path fill-rule="evenodd" clip-rule="evenodd" d="M1.75 7.66667C1.75 4.39898 4.39898 1.75 7.66667 1.75C10.9344 1.75 13.5833 4.39898 13.5833 7.66667C13.5833 9.26306 12.9511 10.7118 11.9234 11.7761C11.896 11.7968 11.8697 11.8197 11.8447 11.8447C11.8197 11.8697 11.7968 11.896 11.7761 11.9234C10.7118 12.9511 9.26306 13.5833 7.66667 13.5833C4.39898 13.5833 1.75 10.9344 1.75 7.66667ZM12.354 13.4147C11.0764 14.4577 9.4446 15.0833 7.66667 15.0833C3.57056 15.0833 0.25 11.7628 0.25 7.66667C0.25 3.57056 3.57056 0.25 7.66667 0.25C11.7628 0.25 15.0833 3.57056 15.0833 7.66667C15.0833 9.4446 14.4577 11.0764 13.4147 12.354L16.5303 15.4697C16.8232 15.7626 16.8232 16.2374 16.5303 16.5303C16.2374 16.8232 15.7626 16.8232 15.4697 16.5303L12.354 13.4147Z" fill="white"/>
</svg>
