<svg width="20" height="23" viewBox="0 0 20 23" fill="none" xmlns="http://www.w3.org/2000/svg">
    <path d="M19.9349 18.4456V20.2438C19.9349 21.3903 19.0041 22.3186 17.8602 22.3186H2.63966C1.49324 22.3186 0.564941 21.3877 0.564941 20.2438V18.4456C0.564941 15.2371 3.16722 12.6348 6.37569 12.6348H7.09854C8.06235 13.0762 9.12761 13.3272 10.2512 13.3272C11.3748 13.3272 12.4426 13.0762 13.4039 12.6348H14.1267C17.3301 12.6348 19.9349 15.2371 19.9349 18.4456ZM4.71439 5.71571C4.71439 2.65943 7.19239 0.181427 10.2487 0.181427C13.305 0.181427 15.783 2.65943 15.783 5.71571C15.783 8.77199 13.305 11.25 10.2487 11.25C7.19239 11.25 4.71439 8.77199 4.71439 5.71571Z" fill="#D7D7D9" />
</svg>